<svg preserveAspectRatio="none" overflow="visible" style="display: block;" width="32" height="32" viewBox="0 0 32 32" fill="none" xmlns="http://www.w3.org/2000/svg">
<g id="credit-card-ban">
<path id="credit-card-ban_2" d="M14.6667 23.0014H6.66672C4.56405 23.0014 3.66672 22.104 3.66672 20.0014V13.0014H25.6667V13.3347C25.6667 13.5999 25.7721 13.8543 25.9596 14.0418C26.1471 14.2293 26.4015 14.3347 26.6667 14.3347C26.9319 14.3347 27.1863 14.2293 27.3738 14.0418C27.5614 13.8543 27.6667 13.5999 27.6667 13.3347V9.33468C27.745 8.65914 27.6695 7.97463 27.446 7.33237C27.2224 6.69011 26.8564 6.10671 26.3756 5.62583C25.8947 5.14495 25.3113 4.77903 24.669 4.55544C24.0268 4.33185 23.3423 4.25639 22.6667 4.33468H6.66672C5.99117 4.25639 5.30666 4.33185 4.6644 4.55544C4.02214 4.77903 3.43874 5.14495 2.95786 5.62583C2.47698 6.10671 2.11106 6.69011 1.88747 7.33237C1.66388 7.97463 1.58842 8.65914 1.66672 9.33468V20.0014C1.58842 20.6769 1.66388 21.3614 1.88747 22.0037C2.11106 22.6459 2.47698 23.2293 2.95786 23.7102C3.43874 24.1911 4.02214 24.557 4.6644 24.7806C5.30666 25.0042 5.99117 25.0796 6.66672 25.0014H14.6667C14.9319 25.0014 15.1863 24.896 15.3738 24.7085C15.5614 24.5209 15.6667 24.2666 15.6667 24.0014C15.6667 23.7361 15.5614 23.4818 15.3738 23.2942C15.1863 23.1067 14.9319 23.0014 14.6667 23.0014ZM6.66672 6.33468H22.6667C24.7694 6.33468 25.6667 7.23202 25.6667 9.33468V11.0014H3.66672V9.33468C3.66672 7.23202 4.56405 6.33468 6.66672 6.33468ZM12 17.668C12.2653 17.668 12.5196 17.7734 12.7072 17.9609C12.8947 18.1484 13 18.4028 13 18.668C13 18.9332 12.8947 19.1876 12.7072 19.3751C12.5196 19.5627 12.2653 19.668 12 19.668H8.00005C7.73483 19.668 7.48048 19.5627 7.29294 19.3751C7.1054 19.1876 7.00005 18.9332 7.00005 18.668C7.00005 18.4028 7.1054 18.1484 7.29294 17.9609C7.48048 17.7734 7.73483 17.668 8.00005 17.668H12ZM23.3334 16.3347C22.2126 16.3347 21.117 16.667 20.1851 17.2897C19.2533 17.9124 18.527 18.7974 18.0981 19.8328C17.6692 20.8683 17.5569 22.0076 17.7756 23.1069C17.9942 24.2061 18.5339 25.2158 19.3264 26.0083C20.1189 26.8008 21.1286 27.3405 22.2279 27.5591C23.3271 27.7778 24.4665 27.6656 25.5019 27.2367C26.5374 26.8078 27.4224 26.0815 28.045 25.1496C28.6677 24.2177 29 23.1221 29 22.0014C28.9983 20.499 28.4007 19.0587 27.3384 17.9964C26.276 16.934 24.8357 16.3364 23.3334 16.3347ZM23.3334 18.3347C23.9561 18.3389 24.5673 18.5032 25.108 18.812L20.144 23.776C19.8353 23.2352 19.6709 22.6241 19.6667 22.0014C19.6674 21.0291 20.054 20.0969 20.7414 19.4094C21.4289 18.7219 22.3611 18.3354 23.3334 18.3347ZM23.3334 25.668C22.7107 25.6639 22.0995 25.4995 21.5587 25.1907L26.5227 20.2267C26.8315 20.7675 26.9959 21.3786 27 22.0014C26.9993 22.9736 26.6128 23.9058 25.9253 24.5933C25.2378 25.2808 24.3056 25.6673 23.3334 25.668Z" fill="#3E4784"/>
</g>
</svg>
