<svg preserveAspectRatio="none" overflow="visible" style="display: block;" width="20" height="20" viewBox="0 0 20 20" fill="none" xmlns="http://www.w3.org/2000/svg">
<g id="credit-card">
<path id="credit-card_2" d="M15 3.54167H5C4.57778 3.49273 4.14997 3.5399 3.74855 3.67964C3.34714 3.81938 2.98252 4.04808 2.68197 4.34863C2.38142 4.64918 2.15272 5.01381 2.01297 5.41522C1.87323 5.81663 1.82606 6.24445 1.875 6.66667V13.3333C1.82606 13.7555 1.87323 14.1834 2.01297 14.5848C2.15272 14.9862 2.38142 15.3508 2.68197 15.6514C2.98252 15.9519 3.34714 16.1806 3.74855 16.3204C4.14997 16.4601 4.57778 16.5073 5 16.4583H15C15.4222 16.5073 15.85 16.4601 16.2514 16.3204C16.6529 16.1806 17.0175 15.9519 17.318 15.6514C17.6186 15.3508 17.8473 14.9862 17.987 14.5848C18.1268 14.1834 18.1739 13.7555 18.125 13.3333V6.66667C18.1739 6.24445 18.1268 5.81663 17.987 5.41522C17.8473 5.01381 17.6186 4.64918 17.318 4.34863C17.0175 4.04808 16.6529 3.81938 16.2514 3.67964C15.85 3.5399 15.4222 3.49273 15 3.54167ZM16.875 13.3333C16.875 14.6475 16.3142 15.2083 15 15.2083H5C3.68583 15.2083 3.125 14.6475 3.125 13.3333V8.95833H16.875V13.3333ZM16.875 7.70833H3.125V6.66667C3.125 5.3525 3.68583 4.79167 5 4.79167H15C16.3142 4.79167 16.875 5.3525 16.875 6.66667V7.70833ZM5.20833 12.5C5.20833 12.3342 5.27418 12.1753 5.39139 12.0581C5.5086 11.9408 5.66757 11.875 5.83333 11.875H8.33333C8.49909 11.875 8.65806 11.9408 8.77527 12.0581C8.89248 12.1753 8.95833 12.3342 8.95833 12.5C8.95833 12.6658 8.89248 12.8247 8.77527 12.9419C8.65806 13.0592 8.49909 13.125 8.33333 13.125H5.83333C5.66757 13.125 5.5086 13.0592 5.39139 12.9419C5.27418 12.8247 5.20833 12.6658 5.20833 12.5Z" fill="#4E5BA6"/>
</g>
</svg>
