<svg preserveAspectRatio="none" overflow="visible" style="display: block;" width="20" height="20" viewBox="0 0 20 20" fill="none" xmlns="http://www.w3.org/2000/svg">
<g id="edit">
<path id="edit_2" d="M16.4583 12.5V15C16.5073 15.4222 16.4601 15.85 16.3204 16.2514C16.1806 16.6529 15.9519 17.0175 15.6514 17.318C15.3508 17.6186 14.9862 17.8473 14.5848 17.987C14.1834 18.1268 13.7555 18.1739 13.3333 18.125H5C4.57778 18.1739 4.14997 18.1268 3.74855 17.987C3.34714 17.8473 2.98252 17.6186 2.68197 17.318C2.38142 17.0175 2.15272 16.6529 2.01297 16.2514C1.87323 15.85 1.82606 15.4222 1.875 15V6.66667C1.82606 6.24445 1.87323 5.81663 2.01297 5.41522C2.15272 5.01381 2.38142 4.64918 2.68197 4.34863C2.98252 4.04808 3.34714 3.81938 3.74855 3.67964C4.14997 3.5399 4.57778 3.49273 5 3.54167H7.5C7.66576 3.54167 7.82473 3.60751 7.94194 3.72472C8.05915 3.84193 8.125 4.00091 8.125 4.16667C8.125 4.33243 8.05915 4.4914 7.94194 4.60861C7.82473 4.72582 7.66576 4.79167 7.5 4.79167H5C3.68583 4.79167 3.125 5.3525 3.125 6.66667V15C3.125 16.3142 3.68583 16.875 5 16.875H13.3333C14.6475 16.875 15.2083 16.3142 15.2083 15V12.5C15.2083 12.3342 15.2742 12.1753 15.3914 12.0581C15.5086 11.9408 15.6676 11.875 15.8333 11.875C15.9991 11.875 16.1581 11.9408 16.2753 12.0581C16.3925 12.1753 16.4583 12.3342 16.4583 12.5ZM18.125 5.04667C18.1249 5.28751 18.077 5.52593 17.984 5.74809C17.891 5.97026 17.7548 6.17174 17.5833 6.34083L10.1142 13.7758C9.99683 13.8926 9.83805 13.9582 9.6725 13.9583H6.66667C6.50091 13.9583 6.34193 13.8925 6.22472 13.7753C6.10751 13.6581 6.04167 13.4991 6.04167 13.3333V10.3242C6.04151 10.2423 6.05756 10.1612 6.08888 10.0855C6.1202 10.0099 6.16618 9.94115 6.22417 9.88333L13.66 2.41667C13.829 2.24571 14.0303 2.11008 14.2522 2.01766C14.4741 1.92524 14.7121 1.87788 14.9525 1.87833C15.1928 1.87767 15.4308 1.92469 15.6529 2.01667C15.8749 2.10864 16.0764 2.24375 16.2458 2.41417L17.5892 3.75C17.76 3.91979 17.8954 4.12188 17.9874 4.34449C18.0794 4.5671 18.1262 4.8058 18.125 5.04667ZM14.6808 7.46917L12.5308 5.31917L7.29167 10.5833V12.7083H9.41667L14.6808 7.46917ZM16.875 5.045C16.8755 4.96906 16.8611 4.89375 16.8325 4.8234C16.8039 4.75305 16.7617 4.68902 16.7083 4.635L15.3667 3.29417C15.3129 3.24067 15.249 3.19838 15.1788 3.16977C15.1086 3.14116 15.0333 3.12679 14.9575 3.1275C14.8817 3.12702 14.8065 3.1415 14.7363 3.17009C14.6661 3.19869 14.6022 3.24085 14.5483 3.29417L13.4167 4.43333L15.5667 6.5875L16.7042 5.455C16.7583 5.40132 16.8013 5.33745 16.8306 5.26708C16.8599 5.19671 16.875 5.12123 16.875 5.045Z" fill="#1570EF"/>
</g>
</svg>
